<?xml version="1.0" encoding="UTF-8"?> <svg xmlns="http://www.w3.org/2000/svg" width="182" height="40" viewBox="0 0 182 40" fill="none"><path d="M0 37V3H33.9636V11.955H29.7154V7.37236H4.4373V32.6349H29.6063V26.8341L21.2991 22.7227L23.2704 18.8L34 24.0932V37H0Z" fill="white"></path><path d="M53.38 9.4H61.04V17H58.6V14.64C58.2667 15.4133 57.68 16.04 56.84 16.52C56.0133 17 55.0267 17.24 53.88 17.24C51.9067 17.24 50.2533 16.56 48.92 15.2C47.5867 13.8267 46.92 12.1 46.92 10.02C46.92 7.92667 47.6 6.19333 48.96 4.82C50.3333 3.44667 52.0667 2.76 54.16 2.76C55.8133 2.76 57.2467 3.21333 58.46 4.12C59.6867 5.01333 60.5067 6.18667 60.92 7.64H57.86C57.5267 6.96 57.0333 6.43333 56.38 6.06C55.74 5.67333 54.9933 5.48 54.14 5.48C52.8467 5.48 51.8 5.90667 51 6.76C50.2 7.61333 49.8 8.71333 49.8 10.06C49.8 11.3667 50.18 12.4533 50.94 13.32C51.7133 14.1733 52.7667 14.6 54.1 14.6C55.0733 14.6 55.92 14.3533 56.64 13.86C57.36 13.3667 57.84 12.68 58.08 11.8H53.38V9.4ZM73.3848 5.72H66.8448V8.54H72.8448V11.26H66.8448V14.28H73.3848V17H63.9848V3H73.3848V5.72ZM77.1445 4.84C78.5445 3.45333 80.2779 2.76 82.3445 2.76C84.4112 2.76 86.1445 3.45333 87.5445 4.84C88.9445 6.22667 89.6445 7.94667 89.6445 10C89.6445 12.0533 88.9445 13.7733 87.5445 15.16C86.1445 16.5467 84.4112 17.24 82.3445 17.24C80.2779 17.24 78.5445 16.5467 77.1445 15.16C75.7579 13.7733 75.0645 12.0533 75.0645 10C75.0645 7.94667 75.7579 6.22667 77.1445 4.84ZM85.4845 6.76C84.6579 5.90667 83.6112 5.48 82.3445 5.48C81.0779 5.48 80.0245 5.90667 79.1845 6.76C78.3579 7.61333 77.9445 8.69333 77.9445 10C77.9445 11.3067 78.3579 12.3867 79.1845 13.24C80.0245 14.0933 81.0779 14.52 82.3445 14.52C83.6112 14.52 84.6579 14.0933 85.4845 13.24C86.3245 12.3867 86.7445 11.3067 86.7445 10C86.7445 8.69333 86.3245 7.61333 85.4845 6.76ZM102.431 3H105.731V17H102.871V6.96L98.9708 12.86H98.7108L94.8308 6.96V17H91.9708V3H95.2508L98.8508 8.38L102.431 3ZM118.15 5.72H111.61V8.54H117.61V11.26H111.61V14.28H118.15V17H108.75V3H118.15V5.72ZM130.39 3V5.72H126.35V17H123.49V5.72H119.47V3H130.39ZM140.521 17L136.901 11.96H135.321V17H132.461V3H138.481C139.975 3 141.141 3.41333 141.981 4.24C142.835 5.05333 143.261 6.16 143.261 7.56C143.261 8.68 142.988 9.59333 142.441 10.3C141.895 11.0067 141.121 11.4867 140.121 11.74L144.041 17H140.521ZM135.321 5.72V9.46H138.161C138.895 9.46 139.441 9.3 139.801 8.98C140.175 8.64667 140.361 8.18667 140.361 7.6C140.361 7.01333 140.175 6.55333 139.801 6.22C139.428 5.88667 138.881 5.72 138.161 5.72H135.321ZM145.782 17V3H148.642V17H145.782ZM160.321 3H163.221V11.34C163.221 13.2467 162.687 14.7067 161.621 15.72C160.554 16.7333 159.161 17.24 157.441 17.24C155.721 17.24 154.327 16.7333 153.261 15.72C152.194 14.7067 151.661 13.2467 151.661 11.34V3H154.561V11.18C154.561 13.4067 155.521 14.52 157.441 14.52C159.361 14.52 160.321 13.4067 160.321 11.18V3ZM176.513 3H179.813V17H176.953V6.96L173.053 12.86H172.793L168.913 6.96V17H166.053V3H169.333L172.933 8.38L176.513 3ZM52.54 28.46C53.5667 28.6733 54.3933 28.8867 55.02 29.1C55.6467 29.3133 56.22 29.5867 56.74 29.92C57.26 30.24 57.6267 30.64 57.84 31.12C58.0667 31.6 58.18 32.18 58.18 32.86C58.18 33.6333 58.0133 34.32 57.68 34.92C57.36 35.5067 56.9267 35.96 56.38 36.28C55.8467 36.6 55.28 36.84 54.68 37C54.0933 37.16 53.4867 37.24 52.86 37.24C50.9533 37.24 49.5 36.7933 48.5 35.9C47.5133 34.9933 46.9333 33.86 46.76 32.5H49.64C49.84 33.22 50.18 33.7467 50.66 34.08C51.1533 34.4133 51.88 34.58 52.84 34.58C53.64 34.58 54.2467 34.44 54.66 34.16C55.0867 33.88 55.3 33.4867 55.3 32.98C55.3 32.66 55.18 32.4067 54.94 32.22C54.7133 32.02 54.4333 31.8733 54.1 31.78C53.7667 31.6867 53.1733 31.5467 52.32 31.36C52.2533 31.3467 52.2 31.34 52.16 31.34C52.1333 31.3267 52.0867 31.3133 52.02 31.3C51.9667 31.2867 51.9133 31.2733 51.86 31.26C51.14 31.1133 50.5333 30.9533 50.04 30.78C49.5467 30.6067 49.06 30.3667 48.58 30.06C48.1 29.7533 47.7333 29.36 47.48 28.88C47.24 28.4 47.12 27.8267 47.12 27.16C47.12 25.7733 47.64 24.6933 48.68 23.92C49.72 23.1467 50.96 22.76 52.4 22.76C54.16 22.76 55.4933 23.1667 56.4 23.98C57.32 24.78 57.8667 25.82 58.04 27.1H55.14C54.7933 25.98 53.8867 25.42 52.42 25.42C51.6067 25.42 51 25.5733 50.6 25.88C50.2 26.1733 50 26.56 50 27.04C50 27.4267 50.1667 27.7067 50.5 27.88C50.8467 28.0533 51.5267 28.2467 52.54 28.46ZM70.3316 23V25.72H66.2916V37H63.4316V25.72H59.4116V23H70.3316ZM81.0628 23H83.9628V31.34C83.9628 33.2467 83.4295 34.7067 82.3628 35.72C81.2961 36.7333 79.9028 37.24 78.1828 37.24C76.4628 37.24 75.0695 36.7333 74.0028 35.72C72.9361 34.7067 72.4028 33.2467 72.4028 31.34V23H75.3028V31.18C75.3028 33.4067 76.2628 34.52 78.1828 34.52C80.1028 34.52 81.0628 33.4067 81.0628 31.18V23ZM91.955 23C93.995 23 95.695 23.6667 97.055 25C98.4283 26.3333 99.115 28 99.115 30C99.115 32 98.4283 33.6667 97.055 35C95.695 36.3333 93.995 37 91.955 37H86.895V23H91.955ZM91.955 34.28C93.2217 34.28 94.255 33.88 95.055 33.08C95.855 32.28 96.255 31.2533 96.255 30C96.255 28.7467 95.855 27.72 95.055 26.92C94.255 26.12 93.2217 25.72 91.955 25.72H89.755V34.28H91.955ZM101.563 37V23H104.423V37H101.563ZM108.922 24.84C110.322 23.4533 112.055 22.76 114.122 22.76C116.189 22.76 117.922 23.4533 119.322 24.84C120.722 26.2267 121.422 27.9467 121.422 30C121.422 32.0533 120.722 33.7733 119.322 35.16C117.922 36.5467 116.189 37.24 114.122 37.24C112.055 37.24 110.322 36.5467 108.922 35.16C107.535 33.7733 106.842 32.0533 106.842 30C106.842 27.9467 107.535 26.2267 108.922 24.84ZM117.262 26.76C116.435 25.9067 115.389 25.48 114.122 25.48C112.855 25.48 111.802 25.9067 110.962 26.76C110.135 27.6133 109.722 28.6933 109.722 30C109.722 31.3067 110.135 32.3867 110.962 33.24C111.802 34.0933 112.855 34.52 114.122 34.52C115.389 34.52 116.435 34.0933 117.262 33.24C118.102 32.3867 118.522 31.3067 118.522 30C118.522 28.6933 118.102 27.6133 117.262 26.76Z" fill="white"></path></svg> 