<svg width="21" height="20" viewBox="0 0 21 20" fill="none" xmlns="http://www.w3.org/2000/svg">
<circle cx="10.5" cy="10" r="9.75" stroke="#FF9356" stroke-width="0.5"/>
<g clip-path="url(#clip0_581_17)">
<path d="M13.8684 11.2674C13.3749 11.2674 12.8916 11.1903 12.4335 11.0392C12.2099 10.9621 11.956 11.0215 11.8091 11.1714L10.9008 11.8573C9.85874 11.3011 9.19179 10.6345 8.64317 9.6L9.31053 8.71327C9.47853 8.54527 9.53875 8.29936 9.46675 8.06905C9.31432 7.608 9.23685 7.12421 9.23685 6.63158C9.23685 6.28336 8.95349 6 8.60527 6H7.13158C6.78336 6 6.5 6.28336 6.5 6.63158C6.5 10.6943 9.80569 14 13.8684 14C14.2166 14 14.5 13.7166 14.5 13.3684V11.899C14.5 11.5507 14.2166 11.2674 13.8684 11.2674Z" fill="#FF9356"/>
</g>
<defs>
<clipPath id="clip0_581_17">
<rect width="8" height="8" fill="white" transform="translate(6.5 6)"/>
</clipPath>
</defs>
</svg>
