<svg width="21" height="20" viewBox="0 0 21 20" fill="none" xmlns="http://www.w3.org/2000/svg">
<circle cx="10.5" cy="10" r="9.75" stroke="#FF9356" stroke-width="0.5"/>
<g clip-path="url(#clip0_581_11)">
<path d="M10.501 6H10.499C8.2935 6 6.5 7.794 6.5 10C6.5 10.875 6.782 11.686 7.2615 12.3445L6.763 13.8305L8.3005 13.339C8.933 13.758 9.6875 14 10.501 14C12.7065 14 14.5 12.2055 14.5 10C14.5 7.7945 12.7065 6 10.501 6ZM12.8285 11.6485C12.732 11.921 12.349 12.147 12.0435 12.213C11.8345 12.2575 11.5615 12.293 10.6425 11.912C9.467 11.425 8.71 10.2305 8.651 10.153C8.5945 10.0755 8.176 9.5205 8.176 8.9465C8.176 8.3725 8.4675 8.093 8.585 7.973C8.6815 7.8745 8.841 7.8295 8.994 7.8295C9.0435 7.8295 9.088 7.832 9.128 7.834C9.2455 7.839 9.3045 7.846 9.382 8.0315C9.4785 8.264 9.7135 8.838 9.7415 8.897C9.77 8.956 9.7985 9.036 9.7585 9.1135C9.721 9.1935 9.688 9.229 9.629 9.297C9.57 9.365 9.514 9.417 9.455 9.49C9.401 9.5535 9.34 9.6215 9.408 9.739C9.476 9.854 9.711 10.2375 10.057 10.5455C10.5035 10.943 10.8655 11.07 10.995 11.124C11.0915 11.164 11.2065 11.1545 11.277 11.0795C11.3665 10.983 11.477 10.823 11.5895 10.6655C11.6695 10.5525 11.7705 10.5385 11.8765 10.5785C11.9845 10.616 12.556 10.8985 12.6735 10.957C12.791 11.016 12.8685 11.044 12.897 11.0935C12.925 11.143 12.925 11.3755 12.8285 11.6485Z" fill="#FF9356"/>
</g>
<defs>
<clipPath id="clip0_581_11">
<rect width="8" height="8" fill="white" transform="translate(6.5 6)"/>
</clipPath>
</defs>
</svg>
